<svg width="1164" height="989" viewBox="0 0 1164 989" fill="none" xmlns="http://www.w3.org/2000/svg">
<ellipse cx="978.253" cy="448.775" rx="109.186" ry="155.597" transform="rotate(41.9971 978.253 448.775)" fill="#CA567C"/>
<ellipse cx="746.078" cy="204.977" rx="125.223" ry="184.5" transform="rotate(10.5961 746.078 204.977)" fill="#FA7625"/>
<ellipse cx="406.078" cy="205.472" rx="125.223" ry="184.5" transform="rotate(-10.9823 406.078 205.472)" fill="#2E5D5D"/>
<ellipse cx="173.167" cy="433.505" rx="109.186" ry="155.597" transform="rotate(-30.5861 173.167 433.505)" fill="#4F2754"/>
<path fill-rule="evenodd" clip-rule="evenodd" d="M449.718 508.414C434.305 536.146 362.88 627.946 313.478 659.264C264.081 690.583 202.868 736.443 213.14 841.747C223.407 947.07 327.105 992.147 395.371 988.149C463.64 984.17 592.351 971.078 684.245 984.346C776.134 997.615 892.112 987.561 919.272 886.726C946.432 785.891 885.689 721.646 838.289 685.193C790.892 648.759 711.738 539.771 687.352 489.736C662.969 439.72 538.86 348.117 449.718 508.414Z" fill="#4F2754"/>
<path d="M568.715 929.891L569.284 930.609C724.541 867.934 784.366 722.643 715.997 659.969C647.621 597.293 569.284 682.751 569.284 682.751H568.715C568.715 682.751 490.372 597.293 422.002 659.969C353.634 722.636 413.458 867.216 568.715 929.891Z" fill="#FA7625"/>
</svg>
