<svg width="1558" height="1095" viewBox="0 0 1558 1095" fill="none" xmlns="http://www.w3.org/2000/svg">
<ellipse cx="1098.62" cy="347.167" rx="84.5041" ry="120.424" transform="rotate(41.9971 1098.62 347.167)" fill="#CA567C"/>
<ellipse cx="918.932" cy="158.48" rx="96.916" ry="142.793" transform="rotate(10.5961 918.932 158.48)" fill="#FA7625"/>
<ellipse cx="655.789" cy="158.863" rx="96.916" ry="142.793" transform="rotate(-10.9823 655.789 158.863)" fill="#2E5D5D"/>
<ellipse cx="475.529" cy="335.349" rx="84.5041" ry="120.424" transform="rotate(-30.5861 475.529 335.349)" fill="#4F2754"/>
<path fill-rule="evenodd" clip-rule="evenodd" d="M689.565 393.324C677.636 414.788 622.357 485.836 584.122 510.075C545.891 534.314 498.515 569.808 506.466 651.307C514.412 732.822 594.669 767.709 647.503 764.614C700.34 761.535 799.955 751.403 871.076 761.672C942.194 771.941 1031.95 764.159 1052.98 686.118C1074 608.077 1026.98 558.356 990.299 530.143C953.615 501.945 892.355 417.594 873.481 378.869C854.61 340.159 758.556 269.263 689.565 393.324Z" fill="#4F2754"/>
<path d="M781.662 719.526L782.103 720.082C902.264 671.574 948.565 559.127 895.651 510.62C842.731 462.113 782.103 528.253 782.103 528.253H781.662C781.662 528.253 721.029 462.113 668.114 510.62C615.201 559.122 661.502 671.019 781.662 719.526Z" fill="#FA7625"/>
<path d="M64.6835 1091.12L0 879.876H39.7803L68.2411 986.146C70.3972 994.114 72.4455 1001.87 74.386 1009.4C76.5421 1016.72 78.5904 1024.15 80.5309 1031.69C82.6871 1039.01 84.8432 1046.66 86.9993 1054.62H88.293C90.6647 1046.66 92.713 1039.01 94.4379 1031.69C96.3784 1024.15 98.3189 1016.72 100.259 1009.4C102.416 1001.87 104.679 994.114 107.051 986.146L137.452 879.876H175.939L108.992 1091.12H64.6835Z" fill="#FA7625"/>
<path d="M260.846 1095C246.185 1095 232.925 1091.77 221.066 1085.31C209.207 1078.63 199.828 1069.16 192.929 1056.88C186.029 1044.4 182.579 1029.43 182.579 1011.99C182.579 994.76 186.029 980.009 192.929 967.735C200.044 955.245 209.207 945.662 220.419 938.987C231.631 932.096 243.382 928.65 255.672 928.65C269.902 928.65 281.868 931.881 291.571 938.341C301.489 944.586 308.928 953.414 313.887 964.827C318.846 976.025 321.325 989.053 321.325 1003.91C321.325 1007.36 321.11 1010.8 320.678 1014.25C320.463 1017.48 320.139 1020.06 319.708 1022H211.04L210.393 996.805H289.307C289.307 984.316 286.504 974.625 280.898 967.735C275.508 960.844 267.422 957.398 256.642 957.398C250.173 957.398 243.921 959.229 237.884 962.889C231.846 966.335 226.78 972.041 222.683 980.009C218.802 987.976 216.969 998.528 217.185 1011.66C217.616 1024.58 220.096 1035.14 224.623 1043.32C229.151 1051.29 234.973 1057.1 242.088 1060.76C249.419 1064.42 257.289 1066.25 265.697 1066.25C272.597 1066.25 279.065 1065.28 285.103 1063.35C291.355 1061.41 297.285 1058.72 302.89 1055.27L315.18 1077.88C307.85 1083.05 299.441 1087.25 289.954 1090.48C280.683 1093.49 270.98 1095 260.846 1095Z" fill="#FA7625"/>
<path d="M409.641 1094.35C391.314 1094.35 378.269 1089.08 370.507 1078.53C362.961 1067.97 359.188 1054.19 359.188 1037.18V961.92H336.549V934.142L361.128 932.527L365.656 882.783H396.704V932.527H437.131V961.92H396.704V1037.18C396.704 1046.44 398.537 1053.44 402.202 1058.18C405.868 1062.7 411.474 1064.96 419.02 1064.96C421.823 1064.96 424.626 1064.74 427.429 1064.31C430.232 1063.67 432.927 1062.81 435.514 1061.73L442.306 1087.57C438.209 1089.51 433.358 1091.12 427.752 1092.42C422.146 1093.71 416.109 1094.35 409.641 1094.35Z" fill="#FA7625"/>
<path d="M558.843 1095C540.947 1095 524.668 1090.8 510.006 1082.4C495.561 1074 484.025 1061.73 475.401 1045.58C466.992 1029.21 462.788 1009.4 462.788 986.146C462.788 968.919 465.267 953.522 470.226 939.956C475.401 926.174 482.408 914.546 491.248 905.071C500.088 895.596 510.33 888.382 521.973 883.429C533.616 878.476 546.229 876 559.813 876C572.965 876 584.716 878.584 595.065 883.752C605.415 888.92 613.931 895.273 620.615 902.81L600.563 925.42C595.173 920.037 589.136 915.945 582.452 913.146C575.984 910.131 568.653 908.624 560.46 908.624C549.032 908.624 538.898 911.746 530.058 917.991C521.218 924.236 514.211 933.065 509.036 944.478C503.862 955.676 501.274 969.134 501.274 984.854C501.274 1001 503.754 1014.89 508.713 1026.52C513.672 1038.15 520.679 1047.09 529.735 1053.33C538.791 1059.36 549.356 1062.38 561.43 1062.38C570.486 1062.38 578.571 1060.65 585.686 1057.21C593.017 1053.76 599.485 1048.92 605.091 1042.67L624.173 1064.64C615.333 1074.54 605.63 1082.08 595.065 1087.25C584.5 1092.42 572.426 1095 558.843 1095Z" fill="#2E5D5D"/>
<path d="M722.216 1095C709.064 1095 696.774 1091.77 685.347 1085.31C673.919 1078.63 664.648 1069.16 657.533 1056.88C650.418 1044.4 646.86 1029.43 646.86 1011.99C646.86 994.329 650.418 979.363 657.533 967.088C664.648 954.599 673.919 945.124 685.347 938.664C696.774 931.988 709.064 928.65 722.216 928.65C735.584 928.65 747.982 931.988 759.409 938.664C770.837 945.124 780.108 954.599 787.223 967.088C794.338 979.363 797.896 994.329 797.896 1011.99C797.896 1029.43 794.338 1044.4 787.223 1056.88C780.108 1069.16 770.837 1078.63 759.409 1085.31C747.982 1091.77 735.584 1095 722.216 1095ZM722.216 1064.64C729.978 1064.64 736.662 1062.48 742.268 1058.18C747.874 1053.87 752.079 1047.73 754.881 1039.77C757.9 1031.8 759.409 1022.54 759.409 1011.99C759.409 1001.44 757.9 992.176 754.881 984.208C752.079 976.025 747.874 969.78 742.268 965.473C736.662 961.167 729.978 959.013 722.216 959.013C714.67 959.013 708.094 961.167 702.488 965.473C696.882 969.78 692.57 976.025 689.551 984.208C686.533 992.176 685.023 1001.44 685.023 1011.99C685.023 1022.54 686.533 1031.8 689.551 1039.77C692.57 1047.73 696.882 1053.87 702.488 1058.18C708.094 1062.48 714.67 1064.64 722.216 1064.64Z" fill="#2E5D5D"/>
<path d="M834.71 1091.12V932.527H865.435L868.022 953.845H869.316C876.431 946.739 884.193 940.817 892.602 936.08C901.011 931.127 910.605 928.65 921.386 928.65C938.419 928.65 950.817 934.142 958.579 945.124C966.341 956.106 970.222 971.611 970.222 991.637V1091.12H933.029V996.482C933.029 983.347 930.981 974.087 926.884 968.704C923.003 963.105 916.75 960.305 908.126 960.305C901.226 960.305 895.081 962.028 889.691 965.473C884.516 968.919 878.587 973.872 871.903 980.332V1091.12H834.71Z" fill="#2E5D5D"/>
<path d="M1083.6 1095C1068.94 1095 1055.68 1091.77 1043.82 1085.31C1031.96 1078.63 1022.58 1069.16 1015.68 1056.88C1008.79 1044.4 1005.34 1029.43 1005.34 1011.99C1005.34 994.76 1008.79 980.009 1015.68 967.735C1022.8 955.245 1031.96 945.662 1043.18 938.987C1054.39 932.096 1066.14 928.65 1078.43 928.65C1092.66 928.65 1104.62 931.881 1114.33 938.341C1124.25 944.586 1131.68 953.414 1136.64 964.827C1141.6 976.025 1144.08 989.053 1144.08 1003.91C1144.08 1007.36 1143.87 1010.8 1143.43 1014.25C1143.22 1017.48 1142.9 1020.06 1142.46 1022H1033.8L1033.15 996.805H1112.06C1112.06 984.316 1109.26 974.625 1103.65 967.735C1098.26 960.844 1090.18 957.398 1079.4 957.398C1072.93 957.398 1066.68 959.229 1060.64 962.889C1054.6 966.335 1049.54 972.041 1045.44 980.009C1041.56 987.976 1039.73 998.528 1039.94 1011.66C1040.37 1024.58 1042.85 1035.14 1047.38 1043.32C1051.91 1051.29 1057.73 1057.1 1064.84 1060.76C1072.17 1064.42 1080.04 1066.25 1088.45 1066.25C1095.35 1066.25 1101.82 1065.28 1107.86 1063.35C1114.11 1061.41 1120.04 1058.72 1125.65 1055.27L1137.94 1077.88C1130.61 1083.05 1122.2 1087.25 1112.71 1090.48C1103.44 1093.49 1093.74 1095 1083.6 1095Z" fill="#2E5D5D"/>
<path d="M1246.55 1095C1231.89 1095 1218.63 1091.77 1206.77 1085.31C1195.13 1078.63 1185.96 1069.16 1179.28 1056.88C1172.6 1044.4 1169.25 1029.43 1169.25 1011.99C1169.25 994.329 1172.92 979.363 1180.25 967.088C1187.8 954.599 1197.61 945.124 1209.68 938.664C1221.76 931.988 1234.8 928.65 1248.82 928.65C1258.95 928.65 1267.79 930.265 1275.34 933.496C1283.1 936.726 1289.78 941.032 1295.39 946.416L1277.28 969.35C1273.83 966.335 1269.95 963.858 1265.63 961.92C1261.54 959.982 1256.58 959.013 1250.76 959.013C1242.35 959.013 1234.91 961.167 1228.44 965.473C1221.97 969.78 1216.8 976.025 1212.92 984.208C1209.25 992.176 1207.42 1001.44 1207.42 1011.99C1207.42 1022.54 1209.25 1031.8 1212.92 1039.77C1216.58 1047.73 1221.54 1053.87 1227.79 1058.18C1234.26 1062.48 1241.7 1064.64 1250.11 1064.64C1256.15 1064.64 1261.86 1063.45 1267.25 1061.08C1272.86 1058.72 1277.92 1055.7 1282.45 1052.04L1297.65 1074.65C1291.18 1080.9 1283.53 1085.85 1274.69 1089.51C1265.85 1093.17 1256.47 1095 1246.55 1095Z" fill="#2E5D5D"/>
<path d="M1381.79 1094.35C1363.46 1094.35 1350.42 1089.08 1342.65 1078.53C1335.11 1067.97 1331.34 1054.19 1331.34 1037.18V961.92H1308.7V934.142L1333.28 932.527L1337.8 882.783H1368.85V932.527H1409.28V961.92H1368.85V1037.18C1368.85 1046.44 1370.68 1053.44 1374.35 1058.18C1378.01 1062.7 1383.62 1064.96 1391.17 1064.96C1393.97 1064.96 1396.77 1064.74 1399.58 1064.31C1402.38 1063.67 1405.07 1062.81 1407.66 1061.73L1414.45 1087.57C1410.36 1089.51 1405.51 1091.12 1399.9 1092.42C1394.29 1093.71 1388.26 1094.35 1381.79 1094.35Z" fill="#2E5D5D"/>
<path d="M1474.24 1095C1464.96 1095 1456.77 1093.06 1449.66 1089.19C1442.54 1085.09 1437.04 1079.6 1433.16 1072.71C1429.28 1065.61 1427.34 1057.53 1427.34 1048.49C1427.34 1031.47 1434.67 1018.34 1449.33 1009.08C1464.21 999.605 1487.93 993.145 1520.48 989.699C1520.48 984.1 1519.51 978.932 1517.57 974.195C1515.85 969.457 1512.94 965.689 1508.84 962.889C1504.74 960.09 1499.03 958.69 1491.7 958.69C1483.94 958.69 1476.28 960.198 1468.74 963.212C1461.41 966.012 1454.18 969.457 1447.07 973.549L1433.48 949.323C1439.31 945.662 1445.67 942.217 1452.57 938.987C1459.47 935.757 1466.8 933.28 1474.56 931.558C1482.32 929.619 1490.41 928.65 1498.81 928.65C1512.18 928.65 1523.18 931.342 1531.8 936.726C1540.43 941.894 1546.9 949.646 1551.21 959.982C1555.74 970.103 1558 982.485 1558 997.128V1091.12H1527.6L1524.69 1073.68H1523.39C1516.49 1079.5 1508.95 1084.56 1500.76 1088.86C1492.56 1092.95 1483.72 1095 1474.24 1095ZM1486.2 1065.93C1492.67 1065.93 1498.49 1064.42 1503.67 1061.41C1509.06 1058.18 1514.66 1053.87 1520.48 1048.49V1012.96C1506.25 1014.68 1494.93 1017.15 1486.52 1020.38C1478.33 1023.4 1472.4 1027.06 1468.74 1031.37C1465.07 1035.46 1463.24 1040.2 1463.24 1045.58C1463.24 1052.47 1465.39 1057.64 1469.71 1061.08C1474.02 1064.31 1479.52 1065.93 1486.2 1065.93Z" fill="#2E5D5D"/>
</svg>
