<svg width="1558" height="219" viewBox="0 0 1558 219" fill="none" xmlns="http://www.w3.org/2000/svg">
<path d="M64.6835 215.124L0 3.87609H39.7803L68.2411 110.146C70.3972 118.114 72.4455 125.866 74.386 133.403C76.5421 140.724 78.5904 148.153 80.5309 155.69C82.6871 163.012 84.8432 170.656 86.9993 178.624H88.293C90.6647 170.656 92.713 163.012 94.4379 155.69C96.3784 148.153 98.3189 140.724 100.259 133.403C102.416 125.866 104.679 118.114 107.051 110.146L137.452 3.87609H175.939L108.992 215.124H64.6835Z" fill="#FA7625"/>
<path d="M260.846 219C246.185 219 232.925 215.77 221.066 209.31C209.207 202.634 199.828 193.159 192.929 180.885C186.029 168.395 182.579 153.429 182.579 135.987C182.579 118.76 186.029 104.009 192.929 91.7345C200.044 79.2448 209.207 69.6622 220.419 62.9867C231.631 56.0959 243.382 52.6504 255.672 52.6504C269.902 52.6504 281.868 55.8805 291.571 62.3407C301.489 68.5855 308.928 77.4144 313.887 88.8274C318.846 100.025 321.325 113.053 321.325 127.911C321.325 131.357 321.11 134.802 320.678 138.248C320.463 141.478 320.139 144.062 319.708 146H211.04L210.393 120.805H289.307C289.307 108.316 286.504 98.6254 280.898 91.7345C275.508 84.8436 267.422 81.3982 256.642 81.3982C250.173 81.3982 243.921 83.2286 237.884 86.8894C231.846 90.3348 226.78 96.0413 222.683 104.009C218.802 111.976 216.969 122.528 217.185 135.664C217.616 148.584 220.096 159.136 224.623 167.319C229.151 175.286 234.973 181.1 242.088 184.761C249.419 188.422 257.289 190.252 265.697 190.252C272.597 190.252 279.065 189.283 285.103 187.345C291.355 185.407 297.285 182.715 302.89 179.27L315.18 201.881C307.85 207.049 299.441 211.248 289.954 214.478C280.683 217.493 270.98 219 260.846 219Z" fill="#FA7625"/>
<path d="M409.641 218.354C391.314 218.354 378.269 213.078 370.507 202.527C362.961 191.975 359.188 178.193 359.188 161.181V85.9203H336.549V58.1416L361.128 56.5265L365.656 6.78318H396.704V56.5265H437.131V85.9203H396.704V161.181C396.704 170.441 398.537 177.44 402.202 182.177C405.868 186.699 411.474 188.96 419.02 188.96C421.823 188.96 424.626 188.745 427.429 188.314C430.232 187.668 432.927 186.807 435.514 185.73L442.306 211.571C438.209 213.509 433.358 215.124 427.752 216.416C422.146 217.708 416.109 218.354 409.641 218.354Z" fill="#FA7625"/>
<path d="M558.843 219C540.947 219 524.668 214.801 510.006 206.403C495.561 198.004 484.025 185.73 475.401 169.58C466.992 153.214 462.788 133.403 462.788 110.146C462.788 92.9189 465.267 77.5221 470.226 63.9557C475.401 50.174 482.408 38.5457 491.248 29.0708C500.088 19.5959 510.33 12.382 521.973 7.4292C533.616 2.4764 546.229 0 559.813 0C572.965 0 584.716 2.58407 595.065 7.75221C605.415 12.9203 613.931 19.2729 620.615 26.8097L600.563 49.4204C595.173 44.0369 589.136 39.9454 582.452 37.146C575.984 34.1313 568.653 32.6239 560.46 32.6239C549.032 32.6239 538.898 35.7463 530.058 41.9911C521.218 48.236 514.211 57.0649 509.036 68.4779C503.862 79.6755 501.274 93.1342 501.274 108.854C501.274 125.004 503.754 138.894 508.713 150.522C513.672 162.15 520.679 171.087 529.735 177.332C538.791 183.361 549.356 186.376 561.43 186.376C570.486 186.376 578.571 184.653 585.686 181.208C593.017 177.763 599.485 172.917 605.091 166.673L624.173 188.637C615.333 198.543 605.63 206.08 595.065 211.248C584.5 216.416 572.426 219 558.843 219Z" fill="#2E5D5D"/>
<path d="M722.216 219C709.064 219 696.774 215.77 685.347 209.31C673.919 202.634 664.648 193.159 657.533 180.885C650.418 168.395 646.86 153.429 646.86 135.987C646.86 118.329 650.418 103.363 657.533 91.0885C664.648 78.5988 673.919 69.1239 685.347 62.6637C696.774 55.9882 709.064 52.6504 722.216 52.6504C735.584 52.6504 747.982 55.9882 759.409 62.6637C770.837 69.1239 780.108 78.5988 787.223 91.0885C794.338 103.363 797.896 118.329 797.896 135.987C797.896 153.429 794.338 168.395 787.223 180.885C780.108 193.159 770.837 202.634 759.409 209.31C747.982 215.77 735.584 219 722.216 219ZM722.216 188.637C729.978 188.637 736.662 186.484 742.268 182.177C747.874 177.87 752.079 171.733 754.881 163.765C757.9 155.798 759.409 146.538 759.409 135.987C759.409 125.435 757.9 116.176 754.881 108.208C752.079 100.025 747.874 93.7802 742.268 89.4734C736.662 85.1667 729.978 83.0133 722.216 83.0133C714.67 83.0133 708.094 85.1667 702.488 89.4734C696.882 93.7802 692.57 100.025 689.551 108.208C686.533 116.176 685.023 125.435 685.023 135.987C685.023 146.538 686.533 155.798 689.551 163.765C692.57 171.733 696.882 177.87 702.488 182.177C708.094 186.484 714.67 188.637 722.216 188.637Z" fill="#2E5D5D"/>
<path d="M834.71 215.124V56.5265H865.435L868.022 77.8451H869.316C876.431 70.7389 884.193 64.8171 892.602 60.0796C901.011 55.1268 910.605 52.6504 921.386 52.6504C938.419 52.6504 950.817 58.1416 958.579 69.1239C966.341 80.1062 970.222 95.6106 970.222 115.637V215.124H933.029V120.482C933.029 107.347 930.981 98.087 926.884 92.7035C923.003 87.1047 916.75 84.3053 908.126 84.3053C901.226 84.3053 895.081 86.028 889.691 89.4734C884.516 92.9189 878.587 97.8717 871.903 104.332V215.124H834.71Z" fill="#2E5D5D"/>
<path d="M1083.6 219C1068.94 219 1055.68 215.77 1043.82 209.31C1031.96 202.634 1022.58 193.159 1015.68 180.885C1008.79 168.395 1005.34 153.429 1005.34 135.987C1005.34 118.76 1008.79 104.009 1015.68 91.7345C1022.8 79.2448 1031.96 69.6622 1043.18 62.9867C1054.39 56.0959 1066.14 52.6504 1078.43 52.6504C1092.66 52.6504 1104.62 55.8805 1114.33 62.3407C1124.25 68.5855 1131.68 77.4144 1136.64 88.8274C1141.6 100.025 1144.08 113.053 1144.08 127.911C1144.08 131.357 1143.87 134.802 1143.43 138.248C1143.22 141.478 1142.9 144.062 1142.46 146H1033.8L1033.15 120.805H1112.06C1112.06 108.316 1109.26 98.6254 1103.65 91.7345C1098.26 84.8436 1090.18 81.3982 1079.4 81.3982C1072.93 81.3982 1066.68 83.2286 1060.64 86.8894C1054.6 90.3348 1049.54 96.0413 1045.44 104.009C1041.56 111.976 1039.73 122.528 1039.94 135.664C1040.37 148.584 1042.85 159.136 1047.38 167.319C1051.91 175.286 1057.73 181.1 1064.84 184.761C1072.17 188.422 1080.04 190.252 1088.45 190.252C1095.35 190.252 1101.82 189.283 1107.86 187.345C1114.11 185.407 1120.04 182.715 1125.65 179.27L1137.94 201.881C1130.61 207.049 1122.2 211.248 1112.71 214.478C1103.44 217.493 1093.74 219 1083.6 219Z" fill="#2E5D5D"/>
<path d="M1246.55 219C1231.89 219 1218.63 215.77 1206.77 209.31C1195.13 202.634 1185.96 193.159 1179.28 180.885C1172.6 168.395 1169.25 153.429 1169.25 135.987C1169.25 118.329 1172.92 103.363 1180.25 91.0885C1187.8 78.5988 1197.61 69.1239 1209.68 62.6637C1221.76 55.9882 1234.8 52.6504 1248.82 52.6504C1258.95 52.6504 1267.79 54.2655 1275.34 57.4956C1283.1 60.7257 1289.78 65.0324 1295.39 70.4159L1277.28 93.3496C1273.83 90.3348 1269.95 87.8584 1265.63 85.9203C1261.54 83.9823 1256.58 83.0133 1250.76 83.0133C1242.35 83.0133 1234.91 85.1667 1228.44 89.4734C1221.97 93.7802 1216.8 100.025 1212.92 108.208C1209.25 116.176 1207.42 125.435 1207.42 135.987C1207.42 146.538 1209.25 155.798 1212.92 163.765C1216.58 171.733 1221.54 177.87 1227.79 182.177C1234.26 186.484 1241.7 188.637 1250.11 188.637C1256.15 188.637 1261.86 187.453 1267.25 185.084C1272.86 182.715 1277.92 179.701 1282.45 176.04L1297.65 198.65C1291.18 204.895 1283.53 209.848 1274.69 213.509C1265.85 217.17 1256.47 219 1246.55 219Z" fill="#2E5D5D"/>
<path d="M1381.79 218.354C1363.46 218.354 1350.42 213.078 1342.65 202.527C1335.11 191.975 1331.34 178.193 1331.34 161.181V85.9203H1308.7V58.1416L1333.28 56.5265L1337.8 6.78318H1368.85V56.5265H1409.28V85.9203H1368.85V161.181C1368.85 170.441 1370.68 177.44 1374.35 182.177C1378.01 186.699 1383.62 188.96 1391.17 188.96C1393.97 188.96 1396.77 188.745 1399.58 188.314C1402.38 187.668 1405.07 186.807 1407.66 185.73L1414.45 211.571C1410.36 213.509 1405.51 215.124 1399.9 216.416C1394.29 217.708 1388.26 218.354 1381.79 218.354Z" fill="#2E5D5D"/>
<path d="M1474.24 219C1464.96 219 1456.77 217.062 1449.66 213.186C1442.54 209.094 1437.04 203.603 1433.16 196.712C1429.28 189.606 1427.34 181.531 1427.34 172.487C1427.34 155.475 1434.67 142.339 1449.33 133.08C1464.21 123.605 1487.93 117.145 1520.48 113.699C1520.48 108.1 1519.51 102.932 1517.57 98.1947C1515.85 93.4572 1512.94 89.6888 1508.84 86.8894C1504.74 84.09 1499.03 82.6903 1491.7 82.6903C1483.94 82.6903 1476.28 84.1976 1468.74 87.2124C1461.41 90.0118 1454.18 93.4572 1447.07 97.5487L1433.48 73.323C1439.31 69.6622 1445.67 66.2168 1452.57 62.9867C1459.47 59.7566 1466.8 57.2802 1474.56 55.5575C1482.32 53.6195 1490.41 52.6504 1498.81 52.6504C1512.18 52.6504 1523.18 55.3422 1531.8 60.7257C1540.43 65.8938 1546.9 73.646 1551.21 83.9823C1555.74 94.1032 1558 106.485 1558 121.128V215.124H1527.6L1524.69 197.681H1523.39C1516.49 203.496 1508.95 208.556 1500.76 212.863C1492.56 216.954 1483.72 219 1474.24 219ZM1486.2 189.929C1492.67 189.929 1498.49 188.422 1503.67 185.407C1509.06 182.177 1514.66 177.87 1520.48 172.487V136.956C1506.25 138.678 1494.93 141.155 1486.52 144.385C1478.33 147.4 1472.4 151.06 1468.74 155.367C1465.07 159.459 1463.24 164.196 1463.24 169.58C1463.24 176.47 1465.39 181.639 1469.71 185.084C1474.02 188.314 1479.52 189.929 1486.2 189.929Z" fill="#2E5D5D"/>
</svg>
