<svg width="3127" height="418" viewBox="0 0 3127 418" fill="none" xmlns="http://www.w3.org/2000/svg">
<ellipse cx="412.823" cy="189.174" rx="46.0764" ry="65.6619" transform="rotate(41.9971 412.823 189.174)" fill="#CA567C"/>
<ellipse cx="314.845" cy="86.2912" rx="52.8441" ry="77.8591" transform="rotate(10.5961 314.845 86.2912)" fill="#FA7625"/>
<ellipse cx="171.365" cy="86.5003" rx="52.8441" ry="77.8591" transform="rotate(-10.9823 171.365 86.5003)" fill="#2E5D5D"/>
<ellipse cx="73.0765" cy="182.73" rx="46.0764" ry="65.6619" transform="rotate(-30.5861 73.0765 182.73)" fill="#4F2754"/>
<path fill-rule="evenodd" clip-rule="evenodd" d="M189.781 214.342C183.277 226.045 153.136 264.784 132.288 278.001C111.442 291.217 85.6103 310.57 89.9452 355.008C94.2778 399.455 138.039 418.477 166.847 416.79C195.656 415.111 249.972 409.586 288.751 415.185C327.529 420.785 376.472 416.542 387.933 373.989C399.394 331.437 373.761 304.326 353.758 288.943C333.757 273.568 300.354 227.575 290.063 206.46C279.773 185.353 227.399 146.696 189.781 214.342Z" fill="#4F2754"/>
<path d="M239.998 392.205L240.238 392.508C305.757 366.059 331.003 304.747 302.151 278.298C273.296 251.849 240.238 287.912 240.238 287.912H239.998C239.998 287.912 206.937 251.849 178.085 278.298C149.233 304.744 174.48 365.756 239.998 392.205Z" fill="#FA7625"/>
<path d="M644.529 386.557L537 35.4425H603.13L650.443 212.074C654.027 225.317 657.433 238.202 660.658 250.729C664.243 262.898 667.648 275.246 670.874 287.773C674.458 299.942 678.042 312.648 681.627 325.891H683.777C687.72 312.648 691.125 299.942 693.992 287.773C697.218 275.246 700.444 262.898 703.67 250.729C707.254 238.202 711.018 225.317 714.961 212.074L765.499 35.4425H829.479L718.186 386.557H644.529Z" fill="#FA7625"/>
<path d="M970.628 393C946.254 393 924.211 387.631 904.497 376.894C884.784 365.798 869.192 350.05 857.722 329.649C846.252 308.89 840.517 284.015 840.517 255.024C840.517 226.39 846.252 201.873 857.722 181.472C869.55 160.713 884.784 144.786 903.422 133.69C922.06 122.237 941.595 116.51 962.025 116.51C985.682 116.51 1005.57 121.879 1021.7 132.617C1038.19 142.996 1050.56 157.671 1058.8 176.64C1067.05 195.252 1071.17 216.906 1071.17 241.602C1071.17 247.328 1070.81 253.055 1070.09 258.782C1069.73 264.15 1069.2 268.445 1068.48 271.667H887.83L886.755 229.791H1017.94C1017.94 209.031 1013.28 192.925 1003.96 181.472C995.001 170.019 981.56 164.292 963.638 164.292C952.885 164.292 942.491 167.334 932.455 173.419C922.419 179.146 913.996 188.63 907.185 201.873C900.734 215.116 897.687 232.654 898.045 254.487C898.762 275.962 902.884 293.499 910.411 307.1C917.938 320.343 927.616 330.007 939.444 336.091C951.631 342.176 964.713 345.218 978.692 345.218C990.162 345.218 1000.91 343.608 1010.95 340.386C1021.35 337.165 1031.2 332.691 1040.52 326.965L1060.95 364.546C1048.77 373.136 1034.79 380.115 1019.02 385.484C1003.6 390.495 987.474 393 970.628 393Z" fill="#FA7625"/>
<path d="M1217.98 391.926C1187.52 391.926 1165.83 383.157 1152.93 365.619C1140.38 348.082 1134.11 325.175 1134.11 296.9V171.808H1096.47V125.637L1137.34 122.953L1144.86 40.2743H1196.48V122.953H1263.68V171.808H1196.48V296.9C1196.48 312.29 1199.52 323.922 1205.62 331.796C1211.71 339.313 1221.03 343.071 1233.57 343.071C1238.23 343.071 1242.89 342.713 1247.55 341.997C1252.21 340.923 1256.69 339.492 1260.99 337.702L1272.28 380.652C1265.47 383.873 1257.41 386.558 1248.09 388.705C1238.77 390.852 1228.74 391.926 1217.98 391.926Z" fill="#FA7625"/>
<path d="M1466.01 393C1436.26 393 1409.2 386.021 1384.83 372.062C1360.81 358.103 1341.64 337.702 1327.3 310.858C1313.32 283.657 1306.33 250.729 1306.33 212.074C1306.33 183.44 1310.45 157.85 1318.7 135.301C1327.3 112.394 1338.95 93.0669 1353.65 77.3186C1368.34 61.5703 1385.37 49.5801 1404.72 41.3481C1424.08 33.116 1445.04 29 1467.63 29C1489.49 29 1509.02 33.295 1526.23 41.8849C1543.43 50.4749 1557.59 61.0334 1568.7 73.5605L1535.37 111.142C1526.41 102.194 1516.37 95.3933 1505.26 90.7404C1494.51 85.7296 1482.32 83.2242 1468.7 83.2242C1449.7 83.2242 1432.86 88.414 1418.16 98.7935C1403.47 109.173 1391.82 123.848 1383.22 142.817C1374.61 161.429 1370.31 183.798 1370.31 209.926C1370.31 236.77 1374.43 259.855 1382.68 279.183C1390.92 298.51 1402.57 313.364 1417.62 323.743C1432.68 333.765 1450.24 338.776 1470.31 338.776C1485.37 338.776 1498.81 335.912 1510.64 330.186C1522.82 324.459 1533.58 316.406 1542.9 306.027L1574.62 342.534C1559.92 358.998 1543.79 371.525 1526.23 380.115C1508.67 388.705 1488.59 393 1466.01 393Z" fill="#2E5D5D"/>
<path d="M1737.6 393C1715.74 393 1695.31 387.631 1676.31 376.894C1657.32 365.798 1641.9 350.05 1630.07 329.649C1618.25 308.89 1612.33 284.015 1612.33 255.024C1612.33 225.675 1618.25 200.799 1630.07 180.398C1641.9 159.639 1657.32 143.891 1676.31 133.153C1695.31 122.058 1715.74 116.51 1737.6 116.51C1759.83 116.51 1780.44 122.058 1799.43 133.153C1818.43 143.891 1833.84 159.639 1845.67 180.398C1857.5 200.799 1863.41 225.675 1863.41 255.024C1863.41 284.015 1857.5 308.89 1845.67 329.649C1833.84 350.05 1818.43 365.798 1799.43 376.894C1780.44 387.631 1759.83 393 1737.6 393ZM1737.6 342.534C1750.51 342.534 1761.62 338.955 1770.94 331.796C1780.26 324.638 1787.25 314.438 1791.91 301.195C1796.92 287.952 1799.43 272.561 1799.43 255.024C1799.43 237.486 1796.92 222.095 1791.91 208.852C1787.25 195.252 1780.26 184.872 1770.94 177.714C1761.62 170.556 1750.51 166.976 1737.6 166.976C1725.06 166.976 1714.13 170.556 1704.81 177.714C1695.49 184.872 1688.32 195.252 1683.3 208.852C1678.28 222.095 1675.77 237.486 1675.77 255.024C1675.77 272.561 1678.28 287.952 1683.3 301.195C1688.32 314.438 1695.49 324.638 1704.81 331.796C1714.13 338.955 1725.06 342.534 1737.6 342.534Z" fill="#2E5D5D"/>
<path d="M1924.61 386.557V122.953H1975.69L1979.99 158.386H1982.14C1993.97 146.575 2006.87 136.733 2020.85 128.858C2034.83 120.626 2050.78 116.51 2068.7 116.51C2097.02 116.51 2117.63 125.637 2130.53 143.891C2143.43 162.145 2149.88 187.914 2149.88 221.201V386.557H2088.06V229.254C2088.06 207.421 2084.65 192.03 2077.84 183.083C2071.39 173.777 2060.99 169.124 2046.66 169.124C2035.19 169.124 2024.97 171.987 2016.01 177.714C2007.41 183.44 1997.55 191.673 1986.44 202.41V386.557H1924.61Z" fill="#2E5D5D"/>
<path d="M2338.37 393C2313.99 393 2291.95 387.631 2272.24 376.894C2252.52 365.798 2236.93 350.05 2225.46 329.649C2213.99 308.89 2208.26 284.015 2208.26 255.024C2208.26 226.39 2213.99 201.873 2225.46 181.472C2237.29 160.713 2252.52 144.786 2271.16 133.69C2289.8 122.237 2309.33 116.51 2329.76 116.51C2353.42 116.51 2373.31 121.879 2389.44 132.617C2405.93 142.996 2418.3 157.671 2426.54 176.64C2434.78 195.252 2438.91 216.906 2438.91 241.602C2438.91 247.328 2438.55 253.055 2437.83 258.782C2437.47 264.15 2436.94 268.445 2436.22 271.667H2255.57L2254.49 229.791H2385.68C2385.68 209.031 2381.02 192.925 2371.7 181.472C2362.74 170.019 2349.3 164.292 2331.38 164.292C2320.63 164.292 2310.23 167.334 2300.19 173.419C2290.16 179.146 2281.74 188.63 2274.93 201.873C2268.47 215.116 2265.43 232.654 2265.79 254.487C2266.5 275.962 2270.62 293.499 2278.15 307.1C2285.68 320.343 2295.36 330.007 2307.18 336.091C2319.37 342.176 2332.45 345.218 2346.43 345.218C2357.9 345.218 2368.65 343.608 2378.69 340.386C2389.09 337.165 2398.94 332.691 2408.26 326.965L2428.69 364.546C2416.51 373.136 2402.53 380.115 2386.76 385.484C2371.34 390.495 2355.21 393 2338.37 393Z" fill="#2E5D5D"/>
<path d="M2609.25 393C2584.88 393 2562.84 387.631 2543.12 376.894C2523.77 365.798 2508.53 350.05 2497.42 329.649C2486.31 308.89 2480.75 284.015 2480.75 255.024C2480.75 225.675 2486.85 200.799 2499.04 180.398C2511.58 159.639 2527.89 143.891 2547.96 133.153C2568.03 122.058 2589.72 116.51 2613.02 116.51C2629.86 116.51 2644.56 119.195 2657.1 124.563C2670.01 129.932 2681.12 137.09 2690.44 146.038L2660.33 184.156C2654.59 179.146 2648.14 175.029 2640.97 171.808C2634.16 168.587 2625.92 166.976 2616.24 166.976C2602.26 166.976 2589.9 170.556 2579.14 177.714C2568.39 184.872 2559.79 195.252 2553.34 208.852C2547.24 222.095 2544.2 237.486 2544.2 255.024C2544.2 272.561 2547.24 287.952 2553.34 301.195C2559.43 314.438 2567.67 324.638 2578.07 331.796C2588.82 338.955 2601.19 342.534 2615.17 342.534C2625.2 342.534 2634.7 340.565 2643.66 336.628C2652.98 332.691 2661.4 327.68 2668.93 321.596L2694.2 359.177C2683.45 369.557 2670.72 377.789 2656.03 383.873C2641.33 389.958 2625.74 393 2609.25 393Z" fill="#2E5D5D"/>
<path d="M2834.07 391.926C2803.6 391.926 2781.92 383.157 2769.01 365.619C2756.47 348.082 2750.2 325.175 2750.2 296.9V171.808H2712.56V125.637L2753.42 122.953L2760.95 40.2743H2812.56V122.953H2879.77V171.808H2812.56V296.9C2812.56 312.29 2815.61 323.922 2821.7 331.796C2827.8 339.313 2837.11 343.071 2849.66 343.071C2854.32 343.071 2858.98 342.713 2863.64 341.997C2868.3 340.923 2872.78 339.492 2877.08 337.702L2888.37 380.652C2881.56 383.873 2873.5 386.558 2864.18 388.705C2854.86 390.852 2844.82 391.926 2834.07 391.926Z" fill="#2E5D5D"/>
<path d="M2987.75 393C2972.34 393 2958.72 389.779 2946.89 383.336C2935.06 376.536 2925.92 367.409 2919.47 355.956C2913.02 344.145 2909.79 330.723 2909.79 315.69C2909.79 287.415 2921.98 265.582 2946.35 250.192C2971.08 234.443 3010.51 223.706 3064.63 217.979C3064.63 208.674 3063.02 200.084 3059.79 192.209C3056.93 184.335 3052.09 178.072 3045.28 173.419C3038.47 168.766 3028.97 166.44 3016.78 166.44C3003.88 166.44 2991.16 168.945 2978.61 173.956C2966.42 178.609 2954.42 184.335 2942.59 191.136L2920.01 150.87C2929.68 144.786 2940.26 139.059 2951.73 133.69C2963.2 128.322 2975.38 124.205 2988.29 121.342C3001.19 118.121 3014.63 116.51 3028.61 116.51C3050.83 116.51 3069.11 120.984 3083.45 129.932C3097.79 138.522 3108.54 151.407 3115.71 168.587C3123.24 185.409 3127 205.989 3127 230.327V386.557H3076.46L3071.62 357.566H3069.47C3058 367.23 3045.46 375.641 3031.84 382.799C3018.22 389.6 3003.52 393 2987.75 393ZM3007.64 344.681C3018.4 344.681 3028.07 342.176 3036.68 337.165C3045.64 331.796 3054.96 324.638 3064.63 315.69V256.634C3040.98 259.498 3022.16 263.614 3008.18 268.982C2994.56 273.993 2984.7 280.078 2978.61 287.236C2972.52 294.036 2969.47 301.911 2969.47 310.858C2969.47 322.312 2973.05 330.902 2980.22 336.628C2987.39 341.997 2996.53 344.681 3007.64 344.681Z" fill="#2E5D5D"/>
</svg>
