<svg width="490" height="423" viewBox="0 0 490 423" fill="none" xmlns="http://www.w3.org/2000/svg">
<path d="M243.104 186.845C254.957 186.845 269.43 186.693 287.554 195.735C305.678 204.777 336.136 234.861 364.6 268.338C374.162 280.085 379.076 287.526 386.825 302.416C393.091 315.431 397.197 326.122 397.197 343.902C397.197 357.237 393.752 379.807 386.825 389.835C378.024 403.308 370.241 408.167 355.71 416.504C341.928 421.484 334.133 422.545 320.15 422.43C287.813 422.165 274.432 412.221 243.844 412.062C213.256 412.221 199.875 422.165 167.538 422.43C153.556 422.545 145.761 421.484 131.979 416.504C117.448 408.167 109.664 403.308 100.863 389.835C93.9364 379.807 90.4922 357.237 90.4922 343.902C90.4923 326.122 94.5979 315.431 100.863 302.416C108.613 287.526 113.527 280.085 123.089 268.338C151.552 234.861 182.011 204.777 200.135 195.735C217.511 187.067 231.531 186.849 243.104 186.845Z" fill="#522B58"/>
<ellipse cx="173.313" cy="88.6057" rx="53.7579" ry="80.0101" transform="rotate(-10.7086 173.313 88.6057)" fill="#2D5D5C"/>
<ellipse cx="73.4764" cy="185.409" rx="46.9468" ry="66.4916" transform="rotate(-29.2931 73.4764 185.409)" fill="#522B58"/>
<ellipse cx="46.9468" cy="66.4916" rx="46.9468" ry="66.4916" transform="matrix(-0.872128 -0.489277 -0.489277 0.872128 489.644 152.775)" fill="#CA567C"/>
<ellipse cx="53.7579" cy="80.0101" rx="53.7579" ry="80.0101" transform="matrix(-0.982585 -0.185814 -0.185814 0.982585 386.205 20.133)" fill="#FA811D"/>
<path d="M202.465 260.929C210.775 260.882 218.783 262.424 226.714 266.923C233.455 271.116 238.297 274.38 244.9 281.911C251.504 274.38 256.345 271.116 263.086 266.923C271.016 262.424 279.024 260.882 287.335 260.929C295.645 260.977 303.918 265.835 311.583 272.919C319.248 280.002 322.192 286.406 323.708 292.401C325.223 298.396 325.397 307.388 323.708 314.881C321.882 322.985 319.161 328.37 313.098 337.362C307.036 346.354 294.257 358.67 281.272 368.835C269.262 377.47 260.617 382.476 244.9 391.315C229.183 382.476 220.537 377.47 208.527 368.835C195.543 358.67 182.763 346.354 176.701 337.362C170.639 328.37 167.919 322.985 166.093 314.881C164.404 307.388 164.577 298.396 166.093 292.401C167.608 286.406 170.552 280.002 178.217 272.919C185.881 265.835 194.154 260.977 202.465 260.929Z" fill="#FA811D"/>
</svg>
