<svg width="415" height="51" viewBox="0 0 415 51" fill="none" xmlns="http://www.w3.org/2000/svg">
<path d="M21.42 49.7L0 0.699999H9.87L28.98 45.01H23.31L42.63 0.699999H51.73L30.38 49.7H21.42Z" fill="white"/>
<path d="M70.828 50.19C66.6746 50.19 63.0346 49.3733 59.908 47.74C56.828 46.06 54.4246 43.7733 52.698 40.88C51.018 37.9867 50.178 34.6967 50.178 31.01C50.178 27.2767 50.9946 23.9867 52.628 21.14C54.308 18.2467 56.5946 15.9833 59.488 14.35C62.428 12.7167 65.7646 11.9 69.498 11.9C73.138 11.9 76.3813 12.6933 79.228 14.28C82.0746 15.8667 84.3146 18.1067 85.948 21C87.5813 23.8933 88.398 27.3 88.398 31.22C88.398 31.5933 88.3746 32.0133 88.328 32.48C88.328 32.9467 88.3046 33.39 88.258 33.81H57.108V28H83.638L80.208 29.82C80.2546 27.6733 79.8113 25.7833 78.878 24.15C77.9446 22.5167 76.6613 21.2333 75.028 20.3C73.4413 19.3667 71.598 18.9 69.498 18.9C67.3513 18.9 65.4613 19.3667 63.828 20.3C62.2413 21.2333 60.9813 22.54 60.048 24.22C59.1613 25.8533 58.718 27.79 58.718 30.03V31.43C58.718 33.67 59.2313 35.6533 60.258 37.38C61.2846 39.1067 62.7313 40.4367 64.598 41.37C66.4646 42.3033 68.6113 42.77 71.038 42.77C73.138 42.77 75.028 42.4433 76.708 41.79C78.388 41.1367 79.8813 40.11 81.188 38.71L85.878 44.1C84.198 46.06 82.0746 47.5767 79.508 48.65C76.988 49.6767 74.0946 50.19 70.828 50.19Z" fill="white"/>
<path d="M110.873 50.19C106.766 50.19 103.593 49.14 101.353 47.04C99.1129 44.8933 97.9929 41.7433 97.9929 37.59V4.06H106.743V37.38C106.743 39.1533 107.186 40.53 108.073 41.51C109.006 42.49 110.29 42.98 111.923 42.98C113.883 42.98 115.516 42.4667 116.823 41.44L119.273 47.67C118.246 48.51 116.986 49.14 115.493 49.56C114 49.98 112.46 50.19 110.873 50.19ZM91.8329 19.6V12.6H116.753V19.6H91.8329Z" fill="white"/>
<path d="M149.991 50.4C146.258 50.4 142.781 49.7933 139.561 48.58C136.388 47.32 133.611 45.57 131.231 43.33C128.898 41.0433 127.078 38.36 125.771 35.28C124.464 32.2 123.811 28.84 123.811 25.2C123.811 21.56 124.464 18.2 125.771 15.12C127.078 12.04 128.921 9.38 131.301 7.14C133.681 4.85333 136.458 3.10334 139.631 1.89C142.804 0.63 146.281 0 150.061 0C154.074 0 157.738 0.700001 161.051 2.1C164.364 3.45333 167.164 5.48333 169.451 8.19L163.571 13.72C161.798 11.8067 159.814 10.3833 157.621 9.45C155.428 8.47 153.048 7.98 150.481 7.98C147.914 7.98 145.558 8.4 143.411 9.24C141.311 10.08 139.468 11.27 137.881 12.81C136.341 14.35 135.128 16.17 134.241 18.27C133.401 20.37 132.981 22.68 132.981 25.2C132.981 27.72 133.401 30.03 134.241 32.13C135.128 34.23 136.341 36.05 137.881 37.59C139.468 39.13 141.311 40.32 143.411 41.16C145.558 42 147.914 42.42 150.481 42.42C153.048 42.42 155.428 41.9533 157.621 41.02C159.814 40.04 161.798 38.57 163.571 36.61L169.451 42.21C167.164 44.87 164.364 46.9 161.051 48.3C157.738 49.7 154.051 50.4 149.991 50.4Z" fill="#E5E5E5"/>
<path d="M192.695 50.19C188.868 50.19 185.461 49.3733 182.475 47.74C179.488 46.06 177.131 43.7733 175.405 40.88C173.678 37.9867 172.815 34.6967 172.815 31.01C172.815 27.2767 173.678 23.9867 175.405 21.14C177.131 18.2467 179.488 15.9833 182.475 14.35C185.461 12.7167 188.868 11.9 192.695 11.9C196.568 11.9 199.998 12.7167 202.985 14.35C206.018 15.9833 208.375 18.2233 210.055 21.07C211.781 23.9167 212.645 27.23 212.645 31.01C212.645 34.6967 211.781 37.9867 210.055 40.88C208.375 43.7733 206.018 46.06 202.985 47.74C199.998 49.3733 196.568 50.19 192.695 50.19ZM192.695 42.7C194.841 42.7 196.755 42.2333 198.435 41.3C200.115 40.3667 201.421 39.0133 202.355 37.24C203.335 35.4667 203.825 33.39 203.825 31.01C203.825 28.5833 203.335 26.5067 202.355 24.78C201.421 23.0067 200.115 21.6533 198.435 20.72C196.755 19.7867 194.865 19.32 192.765 19.32C190.618 19.32 188.705 19.7867 187.025 20.72C185.391 21.6533 184.085 23.0067 183.105 24.78C182.125 26.5067 181.635 28.5833 181.635 31.01C181.635 33.39 182.125 35.4667 183.105 37.24C184.085 39.0133 185.391 40.3667 187.025 41.3C188.705 42.2333 190.595 42.7 192.695 42.7Z" fill="#E5E5E5"/>
<path d="M242.222 11.9C245.209 11.9 247.869 12.4833 250.202 13.65C252.582 14.8167 254.449 16.6133 255.802 19.04C257.155 21.42 257.832 24.5 257.832 28.28V49.7H249.082V29.4C249.082 26.0867 248.289 23.6133 246.702 21.98C245.162 20.3467 242.992 19.53 240.192 19.53C238.139 19.53 236.319 19.95 234.732 20.79C233.145 21.63 231.909 22.89 231.022 24.57C230.182 26.2033 229.762 28.28 229.762 30.8V49.7H221.012V12.32H229.342V22.4L227.872 19.32C229.179 16.94 231.069 15.12 233.542 13.86C236.062 12.5533 238.955 11.9 242.222 11.9Z" fill="#E5E5E5"/>
<path d="M286.57 50.19C282.417 50.19 278.777 49.3733 275.65 47.74C272.57 46.06 270.167 43.7733 268.44 40.88C266.76 37.9867 265.92 34.6967 265.92 31.01C265.92 27.2767 266.737 23.9867 268.37 21.14C270.05 18.2467 272.337 15.9833 275.23 14.35C278.17 12.7167 281.507 11.9 285.24 11.9C288.88 11.9 292.123 12.6933 294.97 14.28C297.817 15.8667 300.057 18.1067 301.69 21C303.323 23.8933 304.14 27.3 304.14 31.22C304.14 31.5933 304.117 32.0133 304.07 32.48C304.07 32.9467 304.047 33.39 304 33.81H272.85V28H299.38L295.95 29.82C295.997 27.6733 295.553 25.7833 294.62 24.15C293.687 22.5167 292.403 21.2333 290.77 20.3C289.183 19.3667 287.34 18.9 285.24 18.9C283.093 18.9 281.203 19.3667 279.57 20.3C277.983 21.2333 276.723 22.54 275.79 24.22C274.903 25.8533 274.46 27.79 274.46 30.03V31.43C274.46 33.67 274.973 35.6533 276 37.38C277.027 39.1067 278.473 40.4367 280.34 41.37C282.207 42.3033 284.353 42.77 286.78 42.77C288.88 42.77 290.77 42.4433 292.45 41.79C294.13 41.1367 295.623 40.11 296.93 38.71L301.62 44.1C299.94 46.06 297.817 47.5767 295.25 48.65C292.73 49.6767 289.837 50.19 286.57 50.19Z" fill="#E5E5E5"/>
<path d="M329.695 50.19C325.775 50.19 322.275 49.3733 319.195 47.74C316.162 46.06 313.782 43.7733 312.055 40.88C310.328 37.9867 309.465 34.6967 309.465 31.01C309.465 27.2767 310.328 23.9867 312.055 21.14C313.782 18.2467 316.162 15.9833 319.195 14.35C322.275 12.7167 325.775 11.9 329.695 11.9C333.335 11.9 336.532 12.6467 339.285 14.14C342.085 15.5867 344.208 17.7333 345.655 20.58L338.935 24.5C337.815 22.7267 336.438 21.42 334.805 20.58C333.218 19.74 331.492 19.32 329.625 19.32C327.478 19.32 325.542 19.7867 323.815 20.72C322.088 21.6533 320.735 23.0067 319.755 24.78C318.775 26.5067 318.285 28.5833 318.285 31.01C318.285 33.4367 318.775 35.5367 319.755 37.31C320.735 39.0367 322.088 40.3667 323.815 41.3C325.542 42.2333 327.478 42.7 329.625 42.7C331.492 42.7 333.218 42.28 334.805 41.44C336.438 40.6 337.815 39.2933 338.935 37.52L345.655 41.44C344.208 44.24 342.085 46.41 339.285 47.95C336.532 49.4433 333.335 50.19 329.695 50.19Z" fill="#E5E5E5"/>
<path d="M367.767 50.19C363.661 50.19 360.487 49.14 358.247 47.04C356.007 44.8933 354.887 41.7433 354.887 37.59V4.06H363.637V37.38C363.637 39.1533 364.081 40.53 364.967 41.51C365.901 42.49 367.184 42.98 368.817 42.98C370.777 42.98 372.411 42.4667 373.717 41.44L376.167 47.67C375.141 48.51 373.881 49.14 372.387 49.56C370.894 49.98 369.354 50.19 367.767 50.19ZM348.727 19.6V12.6H373.647V19.6H348.727Z" fill="#E5E5E5"/>
<path d="M406.395 49.7V42.14L405.905 40.53V27.3C405.905 24.7333 405.135 22.75 403.595 21.35C402.055 19.9033 399.722 19.18 396.595 19.18C394.495 19.18 392.419 19.5067 390.365 20.16C388.359 20.8133 386.655 21.7233 385.255 22.89L381.825 16.52C383.832 14.98 386.212 13.8367 388.965 13.09C391.765 12.2967 394.659 11.9 397.645 11.9C403.059 11.9 407.235 13.2067 410.175 15.82C413.162 18.3867 414.655 22.3767 414.655 27.79V49.7H406.395ZM394.635 50.19C391.835 50.19 389.385 49.7233 387.285 48.79C385.185 47.81 383.552 46.48 382.385 44.8C381.265 43.0733 380.705 41.1367 380.705 38.99C380.705 36.89 381.195 35 382.175 33.32C383.202 31.64 384.859 30.31 387.145 29.33C389.432 28.35 392.465 27.86 396.245 27.86H407.095V33.67H396.875C393.889 33.67 391.882 34.16 390.855 35.14C389.829 36.0733 389.315 37.24 389.315 38.64C389.315 40.2267 389.945 41.4867 391.205 42.42C392.465 43.3533 394.215 43.82 396.455 43.82C398.602 43.82 400.515 43.33 402.195 42.35C403.922 41.37 405.159 39.9233 405.905 38.01L407.375 43.26C406.535 45.4533 405.019 47.1567 402.825 48.37C400.679 49.5833 397.949 50.19 394.635 50.19Z" fill="#E5E5E5"/>
</svg>
